<svg xmlns="http://www.w3.org/2000/svg" viewBox="0 0 420 420"><defs><linearGradient id="g" x1="0" y1="0" x2="1" y2="1"><stop stop-color="#fff2b8"/><stop offset=".45" stop-color="#e7b84c"/><stop offset="1" stop-color="#9e6711"/></linearGradient><radialGradient id="l"><stop stop-color="#fff9d8"/><stop offset="1" stop-color="#e7b84c"/></radialGradient></defs><circle cx="210" cy="205" r="151" fill="none" stroke="url(#g)" stroke-width="12" opacity=".92"/><path d="M210 82v192M148 145h124" stroke="url(#g)" stroke-width="19" stroke-linecap="round"/><path d="M210 292c-38 0-65-23-65-55 0-36 39-77 65-110 26 33 65 74 65 110 0 32-27 55-65 55z" fill="url(#l)" opacity=".96"/><path d="M70 313c52-35 91-31 140 3 49-34 88-38 140-3-39 8-72 24-102 45-27-13-51-13-76 0-30-21-63-37-102-45z" fill="url(#g)"/></svg>